<svg width="23" height="23" viewBox="0 0 23 23" version="1.1" xmlns="http://www.w3.org/2000/svg" xmlns:xlink="http://www.w3.org/1999/xlink"><title>faq-icon</title><desc>Created with Sketch.</desc><g id="Final" stroke="none" stroke-width="1" fill="none" fill-rule="evenodd"><g id="Artboard-Copy" transform="translate(-128.000000, -177.000000)" fill="#909090"><path d="M134.953488,177 C131.115136,177 128,180.115131 128,183.953488 L128,193.04652 C128,196.884872 131.115136,200.000008 134.953488,200.000008 L144.046512,200.000008 C147.884864,200.000008 151,196.884872 151,193.04652 L151,183.953488 C151,180.115131 147.884864,177 144.046512,177 L134.953488,177 Z M134.953488,178.604651 L144.046512,178.604651 C147.023648,178.604651 149.395349,180.976352 149.395349,183.953488 L149.395349,193.04652 C149.395349,196.023656 147.023648,198.395357 144.046512,198.395357 L134.953488,198.395357 C131.976352,198.395357 129.604651,196.023656 129.604651,193.04652 L129.604651,183.953488 C129.604651,180.976352 131.976352,178.604651 134.953488,178.604651 Z M139.5,181.011628 C137.261619,181.011628 135.43261,182.469614 134.978574,184.287791 C134.89537,184.569972 134.973237,184.875068 135.181487,185.082842 C135.389738,185.290615 135.694977,185.367747 135.976911,185.283839 C136.258844,185.199932 136.472261,184.968441 136.533053,184.680596 C136.776907,183.704299 137.990531,182.616279 139.5,182.616279 C140.243595,182.616279 141.022413,182.889337 141.572674,183.335029 C142.122963,183.780721 142.44186,184.354651 142.44186,185.023256 C142.44186,185.901348 142.262995,186.295517 142.023983,186.602834 C141.784997,186.910178 141.402902,187.149111 140.90407,187.505445 C140.405237,187.861812 139.81272,188.353824 139.382994,189.151898 C138.953349,189.949971 138.697674,191.018428 138.697674,192.511636 C138.697674,192.954816 139.056888,193.314085 139.5,193.314085 C139.943112,193.314085 140.302326,192.954816 140.302326,192.511636 C140.302326,191.196705 140.523152,190.418181 140.795435,189.912422 C141.067691,189.406743 141.403036,189.129834 141.840116,188.817595 C142.27717,188.505357 142.831416,188.184293 143.294331,187.589021 C143.757273,186.993754 144.046512,186.150978 144.046512,185.023256 C144.046512,183.819767 143.428614,182.780716 142.575581,182.089753 C141.722495,181.398817 140.626064,181.011628 139.5,181.011628 L139.5,181.011628 Z M139.508291,193.848845 C138.917003,193.848845 138.430179,194.327807 138.430179,194.918613 C138.430179,195.509418 138.91703,195.98838 139.508291,195.98838 C140.099551,195.98838 140.578058,195.509418 140.578058,194.918613 C140.578058,194.327807 140.099524,193.848845 139.508291,193.848845 Z" id="faq-icon"/></g></g></svg>