<svg width="36" height="37" viewBox="0 0 36 37" version="1.1" xmlns="http://www.w3.org/2000/svg" xmlns:xlink="http://www.w3.org/1999/xlink"><title>Page 1</title><desc>Created with Sketch.</desc><g id="web" stroke="none" stroke-width="1" fill="none" fill-rule="evenodd"><g id="product-details-v1-copy" transform="translate(-81.000000, -741.000000)"><g id="Page-1" transform="translate(81.000000, 741.000000)"><path d="M31.536,35.8828 L3.969,35.8828 C2.053,35.8828 0.5,34.3298 0.5,32.4138 L0.5,6.0868 C0.5,4.1708 2.053,2.6178 3.969,2.6178 L31.536,2.6178 C33.452,2.6178 35.005,4.1708 35.005,6.0868 L35.005,32.4138 C35.005,34.3298 33.452,35.8828 31.536,35.8828" id="Fill-1" fill="#FFF"/><path d="M31.536,35.3828 L3.969,35.3828 C2.32914237,35.3828 1,34.0536576 1,32.4138 L1,6.0868 C1,4.44694237 2.32914237,3.1178 3.969,3.1178 L31.536,3.1178 C33.1758576,3.1178 34.505,4.44694237 34.505,6.0868 L34.505,32.4138 C34.505,34.0536576 33.1758576,35.3828 31.536,35.3828 Z M31.536,36.3828 C33.7281424,36.3828 35.505,34.6059424 35.505,32.4138 L35.505,6.0868 C35.505,3.89465763 33.7281424,2.1178 31.536,2.1178 L3.969,2.1178 C1.77685763,2.1178 0,3.89465763 0,6.0868 L0,32.4138 C0,34.6059424 1.77685763,36.3828 3.969,36.3828 L31.536,36.3828 Z" id="Stroke-3" fill="#000"/><path d="M23.0032,12.7778 L17.8692,8.1468 C17.8032,8.0868 17.7022,8.0868 17.6352,8.1468 L12.5502,12.7748 C12.4382,12.8768 12.2592,12.7978 12.2592,12.6458 L12.2592,0.6748 C12.2592,0.5778 12.3372,0.4998 12.4332,0.4998 L23.1202,0.4998 C23.2162,0.4998 23.2942,0.5778 23.2942,0.6748 L23.2942,12.6488 C23.2942,12.7998 23.1152,12.8788 23.0032,12.7778" id="Fill-5" fill="#34BF49"/><path d="M12.7592,0.9998 L22.7942,0.9998 L22.7942,11.9159174 L18.2040977,7.77552713 C17.9492851,7.54387421 17.5589766,7.54387421 17.3016401,7.77432478 L12.7592,11.9085064 L12.7592,0.9998 Z M22.6683023,13.1490729 C23.1016587,13.5398675 23.7942,13.2333812 23.7942,12.6488 L23.7942,0.6748 C23.7942,0.302254697 23.4929408,-0.0002 23.1202,-0.0002 L12.4332,-0.0002 C12.0604592,-0.0002 11.7592,0.302254697 11.7592,0.6748 L11.7592,12.6458 C11.7592,13.2317895 12.4535655,13.5390831 12.8868648,13.1444712 L17.7531806,8.71550184 L22.6683023,13.1490729 Z M17.9717463,8.51657913 C17.8460735,8.62914349 17.6590515,8.62972279 17.534787,8.51850501 L17.7531806,8.71550184 L17.9717463,8.51657913 Z" id="Stroke-7" fill="#000"/><polygon id="Fill-9" fill="#FFF" points="29.481 20.2502 17.776 20.2502 6.072 20.2502 17.776 20.2502"/><path d="M29.481,19.7502 L6.072,19.7502 L6.072,20.7502 L29.481,20.7502 L29.481,19.7502 Z M29.481,20.7502 C30.1476667,20.7502 30.1476667,19.7502 29.481,19.7502 L6.072,19.7502 C5.40533333,19.7502 5.40533333,20.7502 6.072,20.7502 L29.481,20.7502 Z" id="Stroke-11" fill="#000"/><polygon id="Fill-13" fill="#FFF" points="29.481 26.2502 17.776 26.2502 6.072 26.2502 17.776 26.2502"/><path d="M29.481,25.7502 L6.072,25.7502 L6.072,26.7502 L29.481,26.7502 L29.481,25.7502 Z M29.481,26.7502 C30.1476667,26.7502 30.1476667,25.7502 29.481,25.7502 L6.072,25.7502 C5.40533333,25.7502 5.40533333,26.7502 6.072,26.7502 L29.481,26.7502 Z" id="Stroke-15" fill="#000"/></g></g></g></svg>