<svg width="40" height="35" viewBox="0 0 40 35" version="1.1" xmlns="http://www.w3.org/2000/svg" xmlns:xlink="http://www.w3.org/1999/xlink"><title>Page 1</title><desc>Created with Sketch.</desc><g id="web" stroke="none" stroke-width="1" fill="none" fill-rule="evenodd"><g id="product-details-v1-copy" transform="translate(-80.000000, -2002.000000)"><g id="Page-1" transform="translate(80.000000, 2001.000000)"><path d="M29.8627,25.7338 L14.9717,34.1178 C13.7287,34.8178 12.1527,34.3778 11.4527,33.1338 L0.8327,14.2718 C0.1327,13.0288 0.5727,11.4538 1.8167,10.7538 L13.7357,4.0428 L21.5367,5.6798 L30.8467,22.2148 C31.5467,23.4578 31.1057,25.0338 29.8627,25.7338" id="Fill-1" fill="#FFF"/><path d="M21.2122079,6.12259712 L30.4110143,22.460112 C30.9754383,23.4623677 30.6199089,24.733541 29.6173531,25.298134 L14.7263958,33.6821099 C13.723712,34.246775 12.4528236,33.8915748 11.8884503,32.8886029 L1.2683878,14.0264917 C0.70377184,13.0238951 1.0588421,11.7539704 2.06189714,11.1895503 L13.8171064,4.57077284 L21.2122079,6.12259712 Z M31.282366,21.9694531 L21.9723857,5.43448801 C21.901717,5.3089771 21.780354,5.22003941 21.6393859,5.19045799 L13.8383859,3.55345799 C13.7197176,3.52855605 13.5960434,3.54762495 13.4903872,3.60711477 L1.57138717,10.3181148 C0.0869959579,11.1533831 -0.438618507,13.0332669 0.397033971,14.5171469 L11.0170122,33.3791083 C11.8522587,34.8634607 13.7331234,35.389143 15.2170469,34.553466 L30.1080042,26.1694901 C31.5917462,25.3339154 32.1178181,23.4529773 31.282366,21.9694531 Z" id="Stroke-3" fill="#000"/><path d="M35.7876,35.31 L14.2396,35.31 C12.4406,35.31 10.9816,33.851 10.9816,32.052 L10.9816,4.758 C10.9816,2.959 12.4406,1.5 14.2396,1.5 L31.4866,1.5 L39.0456,8.124 L39.0456,32.052 C39.0456,33.851 37.5866,35.31 35.7876,35.31" id="Fill-5" fill="#FFF"/><path d="M38.5456,8.35066123 L38.5456,32.052 C38.5456,33.5748576 37.3104576,34.81 35.7876,34.81 L14.2396,34.81 C12.7167424,34.81 11.4816,33.5748576 11.4816,32.052 L11.4816,4.758 C11.4816,3.23514237 12.7167424,2 14.2396,2 L31.2985215,2 L38.5456,8.35066123 Z M35.7876,35.81 C37.8627424,35.81 39.5456,34.1271424 39.5456,32.052 L39.5456,8.124 C39.5456,7.9799477 39.4834707,7.84289445 39.3751305,7.74795521 L31.8161305,1.12395521 C31.724948,1.04405141 31.6078389,1 31.4866,1 L14.2396,1 C12.1644576,1 10.4816,2.68285763 10.4816,4.758 L10.4816,32.052 C10.4816,34.1271424 12.1644576,35.81 14.2396,35.81 L35.7876,35.81 Z" id="Stroke-7" fill="#000"/><polygon id="Fill-9" fill="#34BF49" points="39.0454 8.1243 31.4864 8.1243 31.4864 1.5003"/><path d="M31.9864,7.6243 L31.9864,2.60326762 L37.7161681,7.6243 L31.9864,7.6243 Z M39.0454,8.6243 C39.5069001,8.6243 39.7220199,8.05241191 39.3749305,7.74825521 L31.8159305,1.12425521 C31.4927171,0.841021265 30.9864,1.07054617 30.9864,1.5003 L30.9864,8.1243 C30.9864,8.40044237 31.2102576,8.6243 31.4864,8.6243 L39.0454,8.6243 Z" id="Stroke-11" fill="#000"/><polygon id="Fill-13" fill="#FFF" points="35.2661 19.1327 25.8251 19.1327 16.3841 19.1327 25.8251 19.1327"/><path d="M35.2661,18.6327 L16.3841,18.6327 L16.3841,19.6327 L35.2661,19.6327 L35.2661,18.6327 Z M35.2661,19.6327 C35.9327667,19.6327 35.9327667,18.6327 35.2661,18.6327 L16.3841,18.6327 C15.7174333,18.6327 15.7174333,19.6327 16.3841,19.6327 L35.2661,19.6327 Z" id="Stroke-15" fill="#000"/><polygon id="Fill-17" fill="#FFF" points="35.2661 25.1327 25.8251 25.1327 16.3841 25.1327 25.8251 25.1327"/><path d="M35.2661,24.6327 L16.3841,24.6327 L16.3841,25.6327 L35.2661,25.6327 L35.2661,24.6327 Z M35.2661,25.6327 C35.9327667,25.6327 35.9327667,24.6327 35.2661,24.6327 L16.3841,24.6327 C15.7174333,24.6327 15.7174333,25.6327 16.3841,25.6327 L35.2661,25.6327 Z" id="Stroke-19" fill="#000"/></g></g></g></svg>